# xmcd CD database file
#
# Track frame offsets:
#	150
#	22653
#	40972
#	46460
#	68299
#	82502
#	101306
#	115982
#	139770
#	158952
#
# Disc length: 2276 seconds
#
# Revision: 0
# Processed by: cddbd v1.5PL3 Copyright (c) Steve Scherf et al.
# Submitted via: CDex 1.51
#
DISCID=6a08e20a
DTITLE=The Beeps - Music For Awkward Situations
DYEAR=2003
DGENRE=Jazz
TTITLE0=Wonderland
TTITLE1=Fragile
TTITLE2=Surf's Up
TTITLE3=Tell Me
TTITLE4=The Jesus Song
TTITLE5=Ferns
TTITLE6=Sunflower
TTITLE7=Paterson
TTITLE8=Speak Your Mind
TTITLE9=We'll Keep the Peace
EXTD=YEAR: 2003
EXTT0=
EXTT1=
EXTT2=
EXTT3=
EXTT4=
EXTT5=
EXTT6=
EXTT7=
EXTT8=
EXTT9=
PLAYORDER=
